<svg id="svg" version="1.1" xmlns="http://www.w3.org/2000/svg" style="display: block; overflow: visible;" shape-rendering="geometricPrecision" viewBox="0 0 901 250" width="901" height="250"><defs><filter id="strong-glow" x="-100%" y="-100%" width="300%" height="300%"><feGaussianBlur stdDeviation="6" result="coloredBlur"/><feMerge><feMergeNode in="coloredBlur"/><feMergeNode in="coloredBlur"/><feMergeNode in="coloredBlur"/><feMergeNode in="SourceGraphic"/></feMerge></filter><linearGradient id="shine-gradient" x1="-100%" y1="0%" x2="0%" y2="0%" spreadMethod="repeat"><stop offset="0%" stop-color="#c4e4ff"/><stop offset="33.33%" stop-color="#ffcae5"/><stop offset="66.66%" stop-color="#fff4d6"/><stop offset="100%" stop-color="#c4e4ff"/><animate attributeName="x1" from="-100%" to="0%" dur="2s" repeatCount="indefinite"/><animate attributeName="x2" from="0%" to="100%" dur="2s" repeatCount="indefinite"/></linearGradient></defs><path filter="url(#strong-glow)" fill="none" stroke="url(#shine-gradient)" stroke-width="4" opacity="0.8" d="M0,0 L7,0 L14,3 L19,10 L20,21 L22,107 L24,124 L26,131 L26,140 L22,150 L15,157 L10,159 L2,159 L-4,156 L-8,151 L-11,142 L-12,135 L-13,118 L-13,21 L-12,9 L-6,2 Z M211,1 L218,1 L224,4 L229,9 L231,16 L231,32 L230,54 L229,97 L230,129 L231,134 L231,142 L228,150 L220,159 L215,161 L207,161 L202,159 L197,153 L195,146 L194,134 L194,97 L197,27 L199,12 L203,6 L208,2 Z M53,7 L61,7 L69,11 L73,17 L74,21 L74,28 L71,35 L65,40 L61,41 L52,41 L45,38 L41,33 L39,27 L40,19 L43,14 L50,8 Z M577,14 L585,14 L591,17 L595,22 L597,28 L597,45 L596,92 L597,127 L599,138 L599,148 L596,157 L592,162 L585,165 L578,165 L570,162 L565,157 L559,162 L550,165 L543,166 L530,166 L520,164 L510,159 L500,150 L493,141 L489,131 L488,125 L488,107 L491,95 L495,87 L503,77 L514,69 L523,65 L533,63 L543,63 L559,67 L562,68 L564,32 L566,22 L570,17 Z M532,91 L522,96 L518,101 L515,107 L515,123 L521,132 L526,136 L530,138 L538,139 L548,137 L556,132 L561,124 L562,121 L562,109 L557,99 L551,94 L544,91 Z M-221,15 L-213,15 L-206,18 L-201,24 L-199,31 L-199,47 L-201,84 L-202,119 L-201,145 L-198,151 L-194,154 L-171,154 L-158,152 L-149,152 L-142,155 L-136,162 L-135,172 L-138,179 L-143,184 L-149,187 L-159,189 L-172,190 L-199,190 L-213,188 L-223,184 L-232,176 L-237,166 L-239,158 L-241,134 L-241,103 L-238,51 L-235,28 L-231,21 L-226,17 Z M126,53 L141,53 L153,55 L163,59 L168,65 L169,74 L166,80 L162,83 L153,84 L142,81 L130,80 L118,81 L118,89 L121,92 L139,96 L157,100 L169,106 L176,114 L180,125 L180,137 L177,147 L171,155 L164,161 L156,165 L150,167 L143,168 L124,168 L108,165 L95,160 L90,155 L89,151 L89,143 L92,138 L97,134 L103,133 L120,139 L125,140 L144,140 L149,138 L151,132 L150,128 L140,125 L116,120 L105,116 L96,109 L90,100 L88,93 L88,83 L92,72 L101,62 L115,55 Z M-88,58 L-77,58 L-61,62 L-50,68 L-40,77 L-32,88 L-28,99 L-27,106 L-27,121 L-29,131 L-33,140 L-39,149 L-47,157 L-61,165 L-71,168 L-78,169 L-94,168 L-106,164 L-117,158 L-127,149 L-134,138 L-138,126 L-139,120 L-139,109 L-135,93 L-129,82 L-120,72 L-110,65 L-98,60 Z M-83,84 L-95,87 L-103,92 L-110,103 L-111,107 L-111,121 L-106,131 L-98,138 L-92,141 L-73,141 L-63,135 L-57,126 L-55,122 L-55,104 L-61,94 L-69,88 L-77,85 Z M54,60 L63,61 L69,65 L72,69 L73,80 L73,139 L72,150 L68,156 L64,159 L60,160 L53,160 L46,157 L42,152 L41,142 L40,107 L40,75 L43,67 L50,61 Z M290,60 L302,60 L314,63 L322,67 L324,69 L329,68 L333,65 L336,64 L346,64 L351,67 L355,72 L357,85 L359,130 L362,143 L361,152 L357,160 L351,165 L346,167 L337,166 L331,162 L329,158 L324,160 L318,164 L309,167 L302,168 L286,168 L276,166 L262,159 L255,153 L247,142 L243,132 L241,122 L241,107 L244,95 L249,85 L260,73 L268,67 L279,62 Z M288,89 L278,95 L272,104 L270,115 L272,125 L278,134 L286,139 L297,141 L306,139 L316,133 L322,123 L323,114 L322,105 L317,97 L311,92 L305,89 Z M432,61 L445,62 L456,66 L464,72 L472,81 L477,93 L479,105 L479,141 L478,150 L473,157 L466,160 L457,159 L451,155 L448,151 L447,146 L446,105 L442,97 L434,92 L427,91 L418,93 L412,97 L407,107 L404,128 L403,141 L400,153 L393,159 L383,160 L377,157 L372,152 L370,144 L371,125 L375,82 L377,73 L381,67 L389,63 L398,64 L403,67 L407,69 L417,64 Z" transform="translate(272,29)"/><path fill="url(#shine-gradient)" d="M0,0 L7,0 L14,3 L19,10 L20,21 L22,107 L24,124 L26,131 L26,140 L22,150 L15,157 L10,159 L2,159 L-4,156 L-8,151 L-11,142 L-12,135 L-13,118 L-13,21 L-12,9 L-6,2 Z M211,1 L218,1 L224,4 L229,9 L231,16 L231,32 L230,54 L229,97 L230,129 L231,134 L231,142 L228,150 L220,159 L215,161 L207,161 L202,159 L197,153 L195,146 L194,134 L194,97 L197,27 L199,12 L203,6 L208,2 Z M53,7 L61,7 L69,11 L73,17 L74,21 L74,28 L71,35 L65,40 L61,41 L52,41 L45,38 L41,33 L39,27 L40,19 L43,14 L50,8 Z M577,14 L585,14 L591,17 L595,22 L597,28 L597,45 L596,92 L597,127 L599,138 L599,148 L596,157 L592,162 L585,165 L578,165 L570,162 L565,157 L559,162 L550,165 L543,166 L530,166 L520,164 L510,159 L500,150 L493,141 L489,131 L488,125 L488,107 L491,95 L495,87 L503,77 L514,69 L523,65 L533,63 L543,63 L559,67 L562,68 L564,32 L566,22 L570,17 Z M532,91 L522,96 L518,101 L515,107 L515,123 L521,132 L526,136 L530,138 L538,139 L548,137 L556,132 L561,124 L562,121 L562,109 L557,99 L551,94 L544,91 Z M-221,15 L-213,15 L-206,18 L-201,24 L-199,31 L-199,47 L-201,84 L-202,119 L-201,145 L-198,151 L-194,154 L-171,154 L-158,152 L-149,152 L-142,155 L-136,162 L-135,172 L-138,179 L-143,184 L-149,187 L-159,189 L-172,190 L-199,190 L-213,188 L-223,184 L-232,176 L-237,166 L-239,158 L-241,134 L-241,103 L-238,51 L-235,28 L-231,21 L-226,17 Z M126,53 L141,53 L153,55 L163,59 L168,65 L169,74 L166,80 L162,83 L153,84 L142,81 L130,80 L118,81 L118,89 L121,92 L139,96 L157,100 L169,106 L176,114 L180,125 L180,137 L177,147 L171,155 L164,161 L156,165 L150,167 L143,168 L124,168 L108,165 L95,160 L90,155 L89,151 L89,143 L92,138 L97,134 L103,133 L120,139 L125,140 L144,140 L149,138 L151,132 L150,128 L140,125 L116,120 L105,116 L96,109 L90,100 L88,93 L88,83 L92,72 L101,62 L115,55 Z M-88,58 L-77,58 L-61,62 L-50,68 L-40,77 L-32,88 L-28,99 L-27,106 L-27,121 L-29,131 L-33,140 L-39,149 L-47,157 L-61,165 L-71,168 L-78,169 L-94,168 L-106,164 L-117,158 L-127,149 L-134,138 L-138,126 L-139,120 L-139,109 L-135,93 L-129,82 L-120,72 L-110,65 L-98,60 Z M-83,84 L-95,87 L-103,92 L-110,103 L-111,107 L-111,121 L-106,131 L-98,138 L-92,141 L-73,141 L-63,135 L-57,126 L-55,122 L-55,104 L-61,94 L-69,88 L-77,85 Z M54,60 L63,61 L69,65 L72,69 L73,80 L73,139 L72,150 L68,156 L64,159 L60,160 L53,160 L46,157 L42,152 L41,142 L40,107 L40,75 L43,67 L50,61 Z M290,60 L302,60 L314,63 L322,67 L324,69 L329,68 L333,65 L336,64 L346,64 L351,67 L355,72 L357,85 L359,130 L362,143 L361,152 L357,160 L351,165 L346,167 L337,166 L331,162 L329,158 L324,160 L318,164 L309,167 L302,168 L286,168 L276,166 L262,159 L255,153 L247,142 L243,132 L241,122 L241,107 L244,95 L249,85 L260,73 L268,67 L279,62 Z M288,89 L278,95 L272,104 L270,115 L272,125 L278,134 L286,139 L297,141 L306,139 L316,133 L322,123 L323,114 L322,105 L317,97 L311,92 L305,89 Z M432,61 L445,62 L456,66 L464,72 L472,81 L477,93 L479,105 L479,141 L478,150 L473,157 L466,160 L457,159 L451,155 L448,151 L447,146 L446,105 L442,97 L434,92 L427,91 L418,93 L412,97 L407,107 L404,128 L403,141 L400,153 L393,159 L383,160 L377,157 L372,152 L370,144 L371,125 L375,82 L377,73 L381,67 L389,63 L398,64 L403,67 L407,69 L417,64 Z" transform="translate(272,29)"/></svg>